<?xml version="1.0" encoding="utf-8"?>
<!-- Generator: Adobe Illustrator 24.0.0, SVG Export Plug-In . SVG Version: 6.00 Build 0)  -->
<svg version="1.1" id="Capa_1" xmlns="http://www.w3.org/2000/svg" xmlns:xlink="http://www.w3.org/1999/xlink" x="0px" y="0px"
	 viewBox="0 0 50 80" style="enable-background:new 0 0 50 80;" xml:space="preserve">
<style type="text/css">
	.st0{fill-rule:evenodd;clip-rule:evenodd;fill:#3E484C;stroke:#3E484C;}
	.st1{fill:#FFFFFF;}
</style>
<title>bt_002_presidencia</title>
<g id="Page-1">
	<g id="Directorio-Mok-home" transform="translate(-1778.000000, -680.000000)">
		<g id="bt_002_presidencia" transform="translate(1778.000000, 680.000000)">
			<rect id="Rectangle-Copy-7" x="0.5" y="0.5" class="st0" width="49" height="79"/>
			<g>
				<path class="st1" d="M28.3,74.3h-9v-2.9c0-1.1,0-1.8,0.1-2.1c0.1-0.5,0.4-0.9,0.9-1.3c0.5-0.3,1-0.5,1.8-0.5
					c0.6,0,1,0.1,1.4,0.3s0.7,0.5,0.9,0.8c0.2,0.3,0.4,0.6,0.4,0.9c0.1,0.4,0.1,1.1,0.1,1.9v1.2h3.4V74.3z M20.8,72.5h2.6v-1
					c0-0.7,0-1.2-0.1-1.4s-0.2-0.4-0.4-0.6s-0.4-0.2-0.7-0.2c-0.3,0-0.6,0.1-0.8,0.3c-0.2,0.2-0.3,0.4-0.4,0.7
					c0,0.2-0.1,0.6-0.1,1.3V72.5z"/>
				<path class="st1" d="M28.3,64.4v1.7h-6.5v-1.6h0.9c-0.4-0.3-0.7-0.5-0.9-0.7c-0.1-0.2-0.2-0.5-0.2-0.7c0-0.4,0.1-0.8,0.3-1.1
					l1.5,0.5c-0.2,0.3-0.3,0.6-0.3,0.8c0,0.2,0.1,0.4,0.2,0.6c0.1,0.2,0.4,0.3,0.7,0.4c0.3,0.1,1.1,0.1,2.2,0.1H28.3z"/>
				<path class="st1" d="M26.2,57.5l0.3-1.7c0.6,0.2,1.1,0.6,1.4,1c0.3,0.5,0.5,1.1,0.5,1.8c0,1.1-0.4,2-1.1,2.5
					c-0.6,0.4-1.3,0.6-2.2,0.6c-1.1,0-1.9-0.3-2.5-0.8c-0.6-0.6-0.9-1.3-0.9-2.1c0-1,0.3-1.7,1-2.3c0.6-0.6,1.6-0.8,2.9-0.8V60
					c0.5,0,0.9-0.1,1.2-0.4c0.3-0.3,0.4-0.6,0.4-1c0-0.3-0.1-0.5-0.2-0.7C26.8,57.7,26.5,57.6,26.2,57.5z M24.5,57.4
					c-0.5,0-0.9,0.1-1.1,0.4c-0.3,0.2-0.4,0.5-0.4,0.9c0,0.4,0.1,0.7,0.4,0.9c0.3,0.2,0.6,0.4,1.1,0.4V57.4z"/>
				<path class="st1" d="M26.4,54.9l-0.3-1.7c0.3-0.1,0.6-0.2,0.8-0.4s0.3-0.5,0.3-0.9c0-0.4-0.1-0.8-0.2-1
					c-0.1-0.1-0.3-0.2-0.5-0.2c-0.1,0-0.2,0-0.3,0.1c-0.1,0.1-0.2,0.3-0.2,0.6c-0.3,1.4-0.6,2.2-0.8,2.6c-0.4,0.5-0.8,0.8-1.5,0.8
					c-0.6,0-1-0.2-1.4-0.7c-0.4-0.4-0.6-1.1-0.6-2.1c0-0.9,0.1-1.5,0.4-2c0.3-0.4,0.7-0.7,1.3-0.9l0.3,1.6c-0.3,0.1-0.4,0.2-0.6,0.4
					s-0.2,0.5-0.2,0.8c0,0.4,0.1,0.8,0.2,1c0.1,0.1,0.2,0.2,0.4,0.2c0.1,0,0.2-0.1,0.3-0.2c0.1-0.2,0.3-0.7,0.5-1.6
					c0.2-0.9,0.5-1.5,0.8-1.9c0.3-0.4,0.7-0.5,1.3-0.5c0.6,0,1.1,0.2,1.5,0.7c0.4,0.5,0.6,1.2,0.6,2.2c0,0.9-0.2,1.6-0.5,2.1
					C27.5,54.4,27,54.7,26.4,54.9z"/>
				<path class="st1" d="M20.9,47.4h-1.6v-1.7h1.6V47.4z M28.3,47.4h-6.5v-1.7h6.5V47.4z"/>
				<path class="st1" d="M28.3,38v1.6h-1c0.4,0.3,0.7,0.6,0.8,0.9s0.3,0.7,0.3,1.1c0,0.7-0.3,1.4-0.9,1.9s-1.4,0.8-2.5,0.8
					c-1.1,0-1.9-0.3-2.5-0.8c-0.6-0.5-0.9-1.2-0.9-1.9c0-0.7,0.3-1.3,0.9-1.9h-3.2V38H28.3z M24.9,42.6c0.7,0,1.2-0.1,1.5-0.3
					c0.5-0.3,0.7-0.7,0.7-1.2c0-0.4-0.2-0.7-0.5-1c-0.3-0.3-0.8-0.4-1.5-0.4c-0.8,0-1.3,0.1-1.6,0.4c-0.3,0.3-0.5,0.6-0.5,1
					c0,0.4,0.2,0.7,0.5,1C23.7,42.4,24.2,42.6,24.9,42.6z"/>
				<path class="st1" d="M26.2,32.6l0.3-1.7c0.6,0.2,1.1,0.6,1.4,1c0.3,0.5,0.5,1.1,0.5,1.8c0,1.1-0.4,2-1.1,2.5
					c-0.6,0.4-1.3,0.6-2.2,0.6c-1.1,0-1.9-0.3-2.5-0.8c-0.6-0.6-0.9-1.3-0.9-2.1c0-1,0.3-1.7,1-2.3c0.6-0.6,1.6-0.8,2.9-0.8v4.3
					c0.5,0,0.9-0.1,1.2-0.4s0.4-0.6,0.4-1c0-0.3-0.1-0.5-0.2-0.7S26.5,32.7,26.2,32.6z M24.5,32.5c-0.5,0-0.9,0.1-1.1,0.4
					c-0.3,0.2-0.4,0.5-0.4,0.9c0,0.4,0.1,0.7,0.4,0.9c0.3,0.2,0.6,0.4,1.1,0.4V32.5z"/>
				<path class="st1" d="M28.3,23.6v1.7H25c-0.7,0-1.2,0-1.4,0.1c-0.2,0.1-0.4,0.2-0.5,0.4c-0.1,0.2-0.2,0.4-0.2,0.6
					c0,0.3,0.1,0.6,0.2,0.8c0.2,0.2,0.4,0.4,0.7,0.5c0.3,0.1,0.8,0.1,1.5,0.1h3v1.7h-6.5v-1.6h1c-0.7-0.6-1.1-1.3-1.1-2.1
					c0-0.4,0.1-0.7,0.2-1c0.1-0.3,0.3-0.5,0.5-0.7c0.2-0.2,0.5-0.3,0.7-0.3c0.3-0.1,0.7-0.1,1.2-0.1H28.3z"/>
				<path class="st1" d="M23.7,16.2l0.3,1.7c-0.3,0.1-0.6,0.2-0.8,0.4C23.1,18.5,23,18.7,23,19c0,0.4,0.1,0.8,0.4,1s0.8,0.4,1.5,0.4
					c0.8,0,1.3-0.1,1.6-0.4c0.3-0.3,0.5-0.6,0.5-1c0-0.3-0.1-0.6-0.3-0.8c-0.2-0.2-0.5-0.4-1-0.4l0.3-1.7c0.8,0.2,1.4,0.5,1.8,1
					c0.4,0.5,0.6,1.2,0.6,2c0,0.9-0.3,1.7-0.9,2.3s-1.4,0.8-2.5,0.8c-1.1,0-1.9-0.3-2.5-0.8c-0.6-0.6-0.9-1.3-0.9-2.3
					c0-0.8,0.2-1.4,0.5-1.9C22.5,16.7,23,16.4,23.7,16.2z"/>
				<path class="st1" d="M20.9,14.9h-1.6v-1.7h1.6V14.9z M28.3,14.9h-6.5v-1.7h6.5V14.9z"/>
				<path class="st1" d="M23.8,10.2l-0.3,1.5c-0.6-0.2-1.1-0.5-1.4-0.9c-0.3-0.4-0.5-1.1-0.5-1.9c0-0.8,0.1-1.3,0.3-1.7
					c0.2-0.4,0.4-0.6,0.7-0.8c0.3-0.2,0.8-0.2,1.5-0.2l2,0c0.6,0,1,0,1.3-0.1S28,6,28.3,5.8v1.7c-0.1,0-0.3,0.1-0.5,0.2
					c-0.1,0-0.2,0-0.2,0.1c0.3,0.3,0.5,0.6,0.6,0.9c0.1,0.3,0.2,0.7,0.2,1.1c0,0.7-0.2,1.2-0.5,1.6c-0.4,0.4-0.8,0.6-1.4,0.6
					c-0.4,0-0.7-0.1-1-0.3c-0.3-0.2-0.5-0.4-0.7-0.7c-0.2-0.3-0.3-0.8-0.4-1.4c-0.2-0.8-0.3-1.4-0.4-1.7h-0.2
					c-0.3,0-0.6,0.1-0.7,0.2c-0.1,0.2-0.2,0.5-0.2,0.9c0,0.3,0.1,0.5,0.2,0.7C23.2,9.9,23.4,10.1,23.8,10.2z M25.2,7.9
					c0.1,0.2,0.2,0.6,0.3,1s0.2,0.8,0.3,0.9c0.2,0.2,0.4,0.3,0.6,0.3c0.2,0,0.5-0.1,0.6-0.3c0.2-0.2,0.3-0.4,0.3-0.7
					c0-0.3-0.1-0.6-0.3-0.9C26.8,8.2,26.6,8,26.3,8c-0.1,0-0.4-0.1-0.8-0.1H25.2z"/>
			</g>
		</g>
	</g>
</g>
</svg>
