<?xml version="1.0" encoding="UTF-8"?>
<svg width="95px" height="65px" viewBox="0 0 95 65" version="1.1" xmlns="http://www.w3.org/2000/svg" xmlns:xlink="http://www.w3.org/1999/xlink">
    <title>Group 64</title>
    <defs>
        <polygon id="path-1" points="0.0796089385 0.506181818 16.0360689 0.506181818 16.0360689 16.8709289 0.0796089385 16.8709289"></polygon>
        <polygon id="path-3" points="0.322310056 0.427636364 4.85365084 0.427636364 4.85365084 6.34710744 0.322310056 6.34710744"></polygon>
    </defs>
    <g id="images" stroke="none" stroke-width="1" fill="none" fill-rule="evenodd">
        <g id="Group-64">
            <polygon id="Fill-1" fill="#FFFFFF" points="23.9552926 21 18.058209 35.6489889 12.4873106 21 4.76026407 21 0 49 7.42929526 49 9.82900914 32.4910941 9.90465404 32.4910941 16.495954 49 19.4670283 49 26.3619808 32.4910941 26.4392352 32.4910941 28.5342235 49 36 49 31.7601299 21"></polygon>
            <polygon id="Fill-2" fill="#FFFFFF" points="84.1371127 21 75.5831486 32.148788 75.506562 32.148788 75.506562 21 68 21 68 49 75.506562 49 75.506562 36.5612696 75.5831486 36.5612696 85.2724276 49 95 49 82.4759394 33.8988884 93.3916821 21"></polygon>
            <g id="Group-63">
                <path d="M43.6786648,33.7367273 C43.6786648,38.2749091 47.0408156,41.5912727 51.1390838,41.5912727 C55.2378827,41.5912727 58.5989721,38.2749091 58.5989721,33.7367273 C58.5989721,30.1072397 55.2378827,26.7903471 51.1390838,26.7903471 C47.0408156,26.7903471 43.6786648,30.1072397 43.6786648,33.7367273 M66.1045028,33.6896529 C66.1045028,42.4169256 59.824419,48.5688595 51.1390838,48.5688595 C42.4542793,48.5688595 36.1736648,42.4169256 36.1736648,33.6896529 C36.1736648,25.5352066 43.3512067,19.8127603 51.1390838,19.8127603 C58.9264302,19.8127603 66.1045028,25.5352066 66.1045028,33.6896529" id="Fill-3" fill="#FFFFFF"></path>
                <g id="Group-7">
                    <mask id="mask-2" fill="white">
                        <use xlink:href="#path-1"></use>
                    </mask>
                    <g id="Clip-6"></g>
                    <path d="M16.0321788,8.98464793 C16.0751676,10.9929785 15.7774302,12.7479537 14.356676,14.2913587 C12.8287151,15.9400198 10.5375698,16.8709289 8.28941341,16.8709289 C3.85572626,16.8709289 0.0796089385,13.1494083 0.0796089385,8.75244959 C0.0796089385,4.18517686 3.83502793,0.505970248 8.41678771,0.505970248 C11.3230447,0.505970248 13.6778771,1.94411901 15.3533799,4.22749091 L14.5259777,4.88335868 C13.1046927,2.76871405 10.9414525,1.45856529 8.35256983,1.45856529 C4.45013966,1.45856529 1.0975419,4.86167273 1.0975419,8.68844959 C1.0975419,12.6215405 4.36416201,15.9193917 8.35256983,15.9193917 C10.0710615,15.9193917 11.747095,15.2217388 13.0622346,14.1644165 C14.4410615,13.001838 14.9500279,11.6694744 15.0137151,9.9356562 L9.28611732,9.9356562 L9.28611732,8.98464793 L16.0321788,8.98464793 Z" id="Fill-5" fill="#FFFFFF" mask="url(#mask-2)"></path>
                </g>
                <path d="M27.5453827,8.4252562 C28.5707458,8.4252562 29.5977011,8.3818843 30.4272263,7.66360331 C31.2127011,7.03312397 31.5836788,6.05408264 31.5836788,5.07504132 C31.5836788,3.85639669 31.0168631,2.63775207 29.8375894,2.1162314 C28.964014,1.70261157 27.851081,1.74598347 26.8904665,1.74598347 L26.2137905,1.74598347 L26.2137905,8.4252562 L27.5453827,8.4252562 Z M32.8754665,16.5569587 L31.674433,16.5569587 L26.7376173,9.4037686 L26.2137905,9.4037686 L26.2137905,16.5569587 L25.1656061,16.5569587 L25.1656061,0.766942149 L27.2173939,0.766942149 C28.5500475,0.766942149 29.8588184,0.788628099 30.9722821,1.59365289 C32.1515559,2.42036364 32.6313324,3.72575207 32.6313324,5.1178843 C32.6313324,7.96826446 30.6453547,9.4471405 27.9168911,9.4037686 L32.8754665,16.5569587 Z" id="Fill-8" fill="#FFFFFF"></path>
                <path d="M51.9103352,0.767206612 L52.9574581,0.767206612 L52.9574581,10.4745785 C52.9574581,12.149686 52.9574581,13.5851901 51.8439944,14.9561653 C50.7315922,16.2181818 49.0284916,16.870876 47.3699721,16.870876 C45.7109218,16.870876 44.0072905,16.2181818 42.8948883,14.9561653 C41.7814246,13.5851901 41.7814246,12.149686 41.7814246,10.4745785 L41.7814246,0.767206612 L42.8290782,0.767206612 L42.8290782,10.1699174 C42.8290782,11.6493223 42.8290782,13.2154711 43.6808939,14.3029421 C44.4881285,15.3470413 46.1031285,15.8913058 47.3699721,15.8913058 C48.6362849,15.8913058 50.2512849,15.3470413 51.0585196,14.3029421 C51.9103352,13.2154711 51.9103352,11.6493223 51.9103352,10.1699174 L51.9103352,0.767206612 Z" id="Fill-10" fill="#FFFFFF"></path>
                <path d="M65.4042095,8.40304132 C66.4741536,8.40304132 67.4347682,8.27345455 68.2860531,7.51127273 C69.0062486,6.85804959 69.3554665,6.01018182 69.3554665,5.05335537 C69.3554665,4.0298843 68.9409693,3.00852893 68.1114441,2.39867769 C67.281919,1.76766942 66.2337346,1.74598347 65.2301313,1.74598347 L63.5052709,1.74598347 L63.5052709,8.40304132 L65.4042095,8.40304132 Z M63.5052709,16.5564298 L62.4570866,16.5564298 L62.4570866,0.766942149 L65.3606899,0.766942149 C66.6487626,0.766942149 67.8927849,0.854743802 68.9192095,1.72482645 C69.9228128,2.57375207 70.4036508,3.81302479 70.4036508,5.09672727 C70.4036508,6.27147107 69.9445726,7.5768595 69.0285391,8.3385124 C68.0238743,9.20806612 66.6487626,9.3831405 65.3606899,9.3831405 L63.5052709,9.3831405 L63.5052709,16.5564298 Z" id="Fill-12" fill="#FFFFFF"></path>
                <path d="M79.3938352,8.68866116 C79.3938352,12.6212231 82.6816844,15.9190744 86.6690307,15.9190744 C90.6372709,15.9190744 93.9458184,12.6000661 93.9458184,8.68866116 C93.9458184,4.75557025 90.6372709,1.45824793 86.6690307,1.45824793 C82.6816844,1.45824793 79.3938352,4.75557025 79.3938352,8.68866116 M94.9642821,8.68866116 C94.9642821,13.1707769 91.1674665,16.8706116 86.6690307,16.8706116 C82.1721872,16.8706116 78.3753715,13.1707769 78.3753715,8.68866116 C78.3753715,4.20601653 82.1514888,0.506181818 86.6690307,0.506181818 C91.1674665,0.506181818 94.9642821,4.20601653 94.9642821,8.68866116" id="Fill-14" fill="#FFFFFF"></path>
                <polygon id="Fill-16" fill="#FFFFFF" points="6.75715363 55.0915702 7.26718156 61.8464793 6.23279609 61.8464793 5.95469553 57.9128595 3.55634358 62.2786116 2.22899721 57.9128595 0.992405028 61.8464793 0.0556731844 61.8464793 2.19662291 55.2386116 3.76491899 60.2835041"></polygon>
                <path d="M11.6243911,56.3177785 L10.341095,57.480357 L9.88785475,57.2217124 L10.9631061,55.8983405 L11.6243911,56.3177785 Z M11.0220168,59.8552331 C11.0220168,59.5272992 10.9270168,59.2623074 10.7348939,59.0592 C10.5422402,58.8518612 10.2933296,58.7487207 9.98763128,58.7487207 C9.65751955,58.7487207 9.37782682,58.8751339 9.15279888,59.1295471 C8.92989385,59.386605 8.81737989,59.6997289 8.81737989,60.0720926 C8.81737989,60.395795 8.91131844,60.6618446 9.0986648,60.8686545 C9.28548045,61.0754645 9.52589944,61.178605 9.82045251,61.178605 C10.145257,61.178605 10.4270726,61.0490182 10.6658994,60.7903736 C10.905257,60.5248529 11.0220168,60.2138446 11.0220168,59.8552331 L11.0220168,59.8552331 Z M12.101514,58.0806876 L11.6365978,61.8461091 L10.7502849,61.8461091 L10.8022961,61.4393653 C10.4233575,61.7107041 10.0300894,61.8461091 9.62302235,61.8461091 C9.12360894,61.8461091 8.7165419,61.6847868 8.39969832,61.3621421 C8.08444693,61.0384397 7.9262905,60.6200595 7.9262905,60.1064727 C7.9262905,59.514076 8.10673743,59.0285223 8.46922346,58.6487537 C8.83489385,58.270043 9.30299441,58.0806876 9.87511732,58.0806876 C10.145257,58.0806876 10.3750615,58.0944397 10.5645307,58.120357 C10.7571844,58.2092165 10.9546145,58.3610182 11.1552291,58.5768198 L11.2146704,58.0806876 L12.101514,58.0806876 Z" id="Fill-18" fill="#FFFFFF"></path>
                <path d="M15.3615,58.5791471 L14.8604944,59.0647008 C14.6243212,58.8547174 14.405662,58.7484033 14.2055782,58.7484033 C14.0697123,58.7484033 13.9561369,58.7843702 13.8675056,58.8547174 C13.7778128,58.9277091 13.7337626,59.0160397 13.7337626,59.1218248 C13.7337626,59.2244364 13.7709134,59.3111802 13.8457458,59.3809983 C13.9200475,59.454519 14.0755503,59.5528992 14.3154385,59.6761388 C14.6529804,59.8543868 14.880662,60.0172959 14.9958296,60.165395 C15.1194888,60.3108496 15.1805223,60.500205 15.1805223,60.734519 C15.1805223,61.0719736 15.0568631,61.3406678 14.8079525,61.545362 C14.5532039,61.7452959 14.2230922,61.8463207 13.8176173,61.8463207 C13.2640698,61.8463207 12.8044609,61.616238 12.4419749,61.1555438 L13.0225894,60.7509157 C13.2614162,61.0360066 13.5151034,61.1793455 13.7847123,61.1793455 C13.9375615,61.1793455 14.0596285,61.1417917 14.1519749,61.0656264 C14.2432598,60.9910479 14.2910251,60.8926678 14.2910251,60.7720727 C14.2910251,60.6662876 14.2506899,60.5811306 14.1732039,60.5150149 C14.1360531,60.4827504 14.0713045,60.4383207 13.9773659,60.3796099 C13.8834274,60.322486 13.7560531,60.2526678 13.5963045,60.1728 C13.3139581,60.0247008 13.1165279,59.8803041 13.0066676,59.7396099 C12.8968073,59.5915107 12.8416117,59.4095603 12.8416117,59.1969322 C12.8416117,58.8753455 12.968986,58.6087669 13.2189581,58.3971967 C13.4715838,58.1872132 13.791081,58.0808992 14.1785112,58.0808992 C14.6057458,58.0808992 15.0006061,58.2464529 15.3615,58.5791471" id="Fill-20" fill="#FFFFFF"></path>
                <polygon id="Fill-22" fill="#FFFFFF" points="21.8247905 58.0807405 19.2247626 62.3343603 17.8820251 58.0807405 18.8033659 58.0807405 19.4535056 60.4868231 20.8089804 58.0807405"></polygon>
                <path d="M24.8230754,59.8554975 C24.8230754,59.5280926 24.727014,59.2625719 24.5343603,59.0589355 C24.3422374,58.8515967 24.0933268,58.7479273 23.7886899,58.7479273 C23.4559246,58.7479273 23.1788855,58.8748694 22.9538575,59.1298116 C22.7288296,59.3852826 22.6163156,59.6994645 22.6163156,60.072357 C22.6163156,60.3955306 22.7113156,60.6615802 22.8976006,60.868919 C23.0854777,61.0757289 23.3264274,61.1788694 23.619919,61.1788694 C23.9457849,61.1788694 24.2281313,61.0492826 24.4658966,60.790638 C24.7041927,60.5251174 24.8230754,60.2141091 24.8230754,59.8554975 L24.8230754,59.8554975 Z M25.9025726,58.0809521 L25.4360642,61.8463736 L24.5508128,61.8463736 L24.602824,61.4391008 C24.222824,61.7104397 23.8295559,61.8463736 23.4235503,61.8463736 C22.9241369,61.8463736 22.5149469,61.6845223 22.1996955,61.3618777 C21.8844441,61.0376463 21.7268184,60.619795 21.7268184,60.1072661 C21.7268184,59.5138116 21.9067346,59.0287868 22.2676285,58.6484893 C22.6332989,58.2703074 23.1035223,58.0809521 23.676176,58.0809521 C23.9457849,58.0809521 24.1755894,58.0947041 24.3655894,58.1211504 C24.558243,58.209481 24.7556732,58.3612826 24.9552263,58.5770843 L25.0157291,58.0809521 L25.9025726,58.0809521 Z" id="Fill-24" fill="#FFFFFF"></path>
                <polygon id="Fill-26" fill="#FFFFFF" points="28.1663324 55.0951669 27.3368073 61.8463736 26.4462486 61.8463736 27.2842654 55.0951669"></polygon>
                <path d="M31.6181229,59.8864926 C31.6181229,59.5389884 31.5125084,59.2655339 31.3023408,59.0618975 C31.0900503,58.8529719 30.8135419,58.7482446 30.4712235,58.7482446 C30.1151061,58.7482446 29.8216145,58.8646083 29.5891564,59.0973355 C29.3556369,59.3327074 29.2404693,59.6278479 29.2404693,59.9822281 C29.2404693,60.3403107 29.3503296,60.6285752 29.5689888,60.8449058 C29.7881788,61.0675835 30.0715866,61.1791868 30.4208045,61.1791868 C30.7673687,61.1791868 31.0528994,61.057005 31.2768659,60.8142281 C31.5045475,60.5735669 31.6181229,60.2652033 31.6181229,59.8864926 M32.5092123,59.9314512 C32.5092123,60.4725421 32.3091285,60.9258314 31.9084302,61.2950215 C31.5098547,61.661038 31.0184022,61.8466909 30.4324804,61.8466909 C29.8216145,61.8466909 29.3216704,61.6721455 28.9342402,61.3246413 C28.5446872,60.9744926 28.3499106,60.5317818 28.3499106,59.9959802 C28.3499106,59.4469554 28.5510559,58.9926083 28.9544078,58.6287074 C29.3604134,58.2642777 29.8677877,58.0807405 30.4781229,58.0807405 C31.0757207,58.0807405 31.5629274,58.2542281 31.9392123,58.5985587 C32.3192123,58.9391868 32.5092123,59.3834843 32.5092123,59.9314512" id="Fill-28" fill="#FFFFFF"></path>
                <path d="M34.4054441,58.0807405 L34.3640475,58.404443 C34.6644385,58.1886413 34.9653603,58.0807405 35.2699972,58.0807405 C35.5374832,58.0807405 35.782148,58.1606083 36.001338,58.3214017 L35.4345223,58.9561124 C35.2726508,58.8185917 35.1086564,58.7487736 34.9451927,58.7487736 C34.8342709,58.7487736 34.7350251,58.7709884 34.6490475,58.8159471 C34.5625391,58.8603769 34.4892989,58.930195 34.4266732,59.0259306 C34.362986,59.122195 34.3115056,59.2449058 34.2701089,59.3972364 C34.2281816,59.5485091 34.1952765,59.7294017 34.1719246,59.940443 L33.9394665,61.8456331 L33.0536844,61.8456331 L33.5180698,58.0807405 L34.4054441,58.0807405 Z" id="Fill-30" fill="#FFFFFF"></path>
                <g id="Group-34" transform="translate(37.681564, 57.652893)">
                    <mask id="mask-4" fill="white">
                        <use xlink:href="#path-3"></use>
                    </mask>
                    <g id="Clip-33"></g>
                    <path d="M3.96309218,2.21963636 C3.96309218,1.89276033 3.86809218,1.62300826 3.67596927,1.41461157 C3.48331564,1.20092562 3.23599721,1.0951405 2.93613687,1.0951405 C2.57842737,1.0951405 2.27856704,1.22366942 2.03867877,1.4812562 C1.79772905,1.73831405 1.67672346,2.05461157 1.67672346,2.42909091 C1.67672346,2.75649587 1.77915363,3.02042975 1.98136034,3.21983471 C2.18515922,3.42347107 2.44733799,3.52661157 2.76842737,3.52661157 C3.10596927,3.52661157 3.38831564,3.39966942 3.61812011,3.14895868 C3.84792458,2.8913719 3.96309218,2.58247934 3.96309218,2.21963636 L3.96309218,2.21963636 Z M1.93890223,0.427636364 L1.89007542,0.823801653 C2.27272905,0.559867769 2.67501955,0.427636364 3.09747765,0.427636364 C3.60060615,0.427636364 4.01828771,0.595305785 4.35264525,0.928 C4.68753352,1.26122314 4.85365084,1.68171901 4.85365084,2.19001653 C4.85365084,2.75596694 4.66205866,3.23094215 4.27993575,3.61705785 C3.89993575,4.00158678 3.42865084,4.19358678 2.86448883,4.19358678 C2.57577374,4.19358678 2.33906983,4.1486281 2.15384637,4.05765289 C1.96172346,3.96720661 1.75792458,3.80218182 1.54138827,3.56628099 L1.20809218,6.3473719 L0.322310056,6.3473719 L1.05205866,0.427636364 L1.93890223,0.427636364 Z" id="Fill-32" fill="#FFFFFF" mask="url(#mask-4)"></path>
                </g>
                <path d="M46.1594385,59.8554975 C46.1594385,59.5280926 46.0644385,59.2625719 45.8723156,59.0589355 C45.679662,58.8515967 45.4296899,58.7479273 45.1250531,58.7479273 C44.7938799,58.7479273 44.5157793,58.8748694 44.2907514,59.1298116 C44.0667849,59.3852826 43.9542709,59.6994645 43.9542709,60.072357 C43.9542709,60.3955306 44.0482095,60.6615802 44.2355559,60.868919 C44.4229022,61.0757289 44.6627905,61.1788694 44.958405,61.1788694 C45.2826788,61.1788694 45.5644944,61.0492826 45.803852,60.790638 C46.042148,60.5251174 46.1594385,60.2141091 46.1594385,59.8554975 L46.1594385,59.8554975 Z M47.2394665,58.0809521 L46.7740196,61.8463736 L45.887176,61.8463736 L45.9397179,61.4391008 C45.5597179,61.7104397 45.1680419,61.8463736 44.7599134,61.8463736 C44.2605,61.8463736 43.8529022,61.6845223 43.5365894,61.3618777 C43.2208073,61.0376463 43.0637123,60.619795 43.0637123,60.1072661 C43.0637123,59.5138116 43.2436285,59.0287868 43.6055838,58.6484893 C43.9717849,58.2703074 44.4404162,58.0809521 45.0125391,58.0809521 C45.2826788,58.0809521 45.5124832,58.0947041 45.7019525,58.1211504 C45.8951369,58.209481 46.092567,58.3612826 46.2915894,58.5770843 L46.3520922,58.0809521 L47.2394665,58.0809521 Z" id="Fill-35" fill="#FFFFFF"></path>
                <path d="M49.135433,58.0807405 L49.0940363,58.404443 C49.3944274,58.1886413 49.6958799,58.0807405 50.0005168,58.0807405 C50.2674721,58.0807405 50.5121369,58.1606083 50.7313268,58.3214017 L50.1645112,58.9561124 C50.0026397,58.8185917 49.8386453,58.7487736 49.6757123,58.7487736 C49.5642598,58.7487736 49.4655447,58.7709884 49.3790363,58.8159471 C49.2930587,58.8603769 49.2192877,58.930195 49.1571927,59.0259306 C49.0929749,59.122195 49.0420251,59.2449058 49.0000978,59.3972364 C48.9581704,59.5485091 48.9252654,59.7294017 48.9019134,59.940443 L48.6694553,61.8456331 L47.7836732,61.8456331 L48.2480587,58.0807405 L49.135433,58.0807405 Z" id="Fill-37" fill="#FFFFFF"></path>
                <path d="M53.729824,59.8554975 C53.729824,59.5280926 53.6332318,59.2625719 53.4405782,59.0589355 C53.2484553,58.8515967 52.9995447,58.7479273 52.6954385,58.7479273 C52.3642654,58.7479273 52.0856341,58.8748694 51.8606061,59.1298116 C51.6366397,59.3852826 51.5241257,59.6994645 51.5241257,60.072357 C51.5241257,60.3955306 51.6164721,60.6615802 51.8043492,60.868919 C51.9922263,61.0757289 52.2310531,61.1788694 52.5266676,61.1788694 C52.8525335,61.1788694 53.1343492,61.0492826 53.3737067,60.790638 C53.6109413,60.5251174 53.729824,60.2141091 53.729824,59.8554975 L53.729824,59.8554975 Z M54.8077291,58.0809521 L54.3428128,61.8463736 L53.4570307,61.8463736 L53.5085112,61.4391008 C53.1285112,61.7104397 52.7363045,61.8463736 52.3287067,61.8463736 C51.8287626,61.8463736 51.4216955,61.6845223 51.1069749,61.3618777 C50.7911927,61.0376463 50.6330363,60.619795 50.6330363,60.1072661 C50.6330363,59.5138116 50.8134832,59.0287868 51.1743771,58.6484893 C51.5416397,58.2703074 52.0102709,58.0809521 52.5829246,58.0809521 C52.8525335,58.0809521 53.082338,58.0947041 53.272338,58.1211504 C53.4649916,58.209481 53.6613603,58.3612826 53.8619749,58.5770843 L53.9224777,58.0809521 L54.8077291,58.0809521 Z" id="Fill-39" fill="#FFFFFF"></path>
                <polygon id="Fill-41" fill="#FFFFFF" points="58.9732933 58.8926942 58.6081536 61.845686 57.7181257 61.845686 58.0832654 58.8926942 57.5811983 58.8926942 57.6809749 58.0813223 58.1846341 58.0813223 58.403824 56.3337521 59.2901369 56.3337521 59.0730698 58.0813223 59.8919804 58.0813223 59.7911425 58.8926942"></polygon>
                <path d="M63.5645531,58.0807405 L63.2960056,60.2218314 C63.2737151,60.4037818 63.2471788,60.5619306 63.2158659,60.6983934 C63.1834916,60.8322116 63.1484637,60.9459306 63.1107821,61.0384926 C63.0359497,61.2125091 62.9112291,61.3669554 62.7339665,61.5028893 C62.4335754,61.7313851 62.0403073,61.8456331 61.5504469,61.8456331 C61.0844693,61.8456331 60.7118994,61.7303273 60.4332682,61.4991868 C60.1514525,61.2648727 60.0102793,60.9512198 60.0102793,60.5582281 C60.0102793,60.4974017 60.0139944,60.4270545 60.0203631,60.3456 C60.0277933,60.2667901 60.0378771,60.1726413 60.051676,60.0695008 L60.3027095,58.0807405 L61.1943296,58.0807405 L60.9332123,60.1816331 C60.922067,60.2726083 60.9146369,60.3503603 60.9098603,60.4175339 C60.9045531,60.4857653 60.900838,60.5407736 60.900838,60.587319 C60.900838,60.9808397 61.1343575,61.1786579 61.6029888,61.1786579 C61.856676,61.1786579 62.0445531,61.1136 62.1639665,60.9845421 C62.2839106,60.8533686 62.3651117,60.6269884 62.4054469,60.3011702 L62.6814246,58.0807405 L63.5645531,58.0807405 Z" id="Fill-43" fill="#FFFFFF"></path>
                <path d="M66.8193911,58.5791471 L66.3183855,59.0647008 C66.0822123,58.8547174 65.8651453,58.7484033 65.6650615,58.7484033 C65.5270726,58.7484033 65.4145587,58.7843702 65.3253966,58.8547174 C65.2351732,58.9277091 65.1916536,59.0160397 65.1916536,59.1218248 C65.1916536,59.2244364 65.2288045,59.3111802 65.3036369,59.3809983 C65.3779385,59.454519 65.5350335,59.5528992 65.7727989,59.6761388 C66.1124637,59.8543868 66.3396145,60.0172959 66.4542514,60.165395 C66.5773799,60.3108496 66.6389441,60.500205 66.6389441,60.734519 C66.6389441,61.0719736 66.5147542,61.3406678 66.2674358,61.545362 C66.0121564,61.7452959 65.6820447,61.8463207 65.2749777,61.8463207 C64.7224916,61.8463207 64.262352,61.616238 63.8993352,61.1555438 L64.4804804,60.7509157 C64.7187765,61.0360066 64.9724637,61.1793455 65.2420726,61.1793455 C65.3949218,61.1793455 65.5175196,61.1417917 65.6098659,61.0656264 C65.7016816,60.9910479 65.7489162,60.8926678 65.7489162,60.7720727 C65.7489162,60.6662876 65.7101732,60.5811306 65.6326872,60.5150149 C65.5950056,60.4827504 65.5291955,60.4383207 65.435257,60.3796099 C65.3429106,60.322486 65.2150056,60.2526678 65.055257,60.1728 C64.7718492,60.0247008 64.5754804,59.8803041 64.4656201,59.7396099 C64.3557598,59.5915107 64.3005642,59.4095603 64.3005642,59.1969322 C64.3005642,58.8753455 64.4268771,58.6087669 64.6779106,58.3971967 C64.9289441,58.1872132 65.2489721,58.0808992 65.6374637,58.0808992 C66.0641676,58.0808992 66.4595587,58.2464529 66.8193911,58.5791471" id="Fill-45" fill="#FFFFFF"></path>
                <path d="M72.7522207,58.5202777 L72.6407682,59.3956496 C72.4581983,59.1645091 72.2835894,58.9973686 72.1185335,58.8968727 C71.956662,58.7979636 71.7645391,58.7482446 71.5416341,58.7482446 C71.2046229,58.7482446 70.9265223,58.866724 70.7110475,59.1042116 C70.4945112,59.342757 70.3867737,59.6479471 70.3867737,60.0213686 C70.3867737,60.3709884 70.487081,60.6507901 70.6914106,60.8607736 C70.8968017,61.0728727 71.1632263,61.1786579 71.4890922,61.1786579 C71.8016899,61.1786579 72.1259637,61.0443107 72.4597905,60.7756165 L72.3435615,61.6573355 C72.0017737,61.7826909 71.6743156,61.846162 71.3643715,61.846162 C70.8118855,61.846162 70.3597067,61.6774347 70.0126117,61.3394512 C69.6676397,61.0019967 69.4951536,60.5635174 69.4951536,60.0261289 C69.4951536,59.4718149 69.6814385,59.0116496 70.0524162,58.6403438 C70.4271089,58.2674512 70.8920251,58.0812694 71.448757,58.0812694 C71.9041201,58.0812694 72.3387849,58.2277818 72.7522207,58.5202777" id="Fill-47" fill="#FFFFFF"></path>
                <polygon id="Fill-49" fill="#FFFFFF" points="74.7528464 55.0951669 73.9227905 61.8463736 73.0327626 61.8463736 73.8707793 55.0951669"></polygon>
                <path d="M76.5515307,56.2904331 C76.5515307,56.4173752 76.5048268,56.5284496 76.4119497,56.6215405 C76.3190726,56.7156893 76.2065587,56.7617058 76.0744078,56.7617058 C75.9443799,56.7617058 75.8292123,56.7141025 75.7352737,56.617838 C75.6413352,56.5178711 75.5946313,56.4015074 75.5946313,56.2713917 C75.5946313,56.1402182 75.639743,56.0291438 75.7294358,55.9381686 C75.8244358,55.8445488 75.9342961,55.7990612 76.0632626,55.7990612 C76.1948827,55.7990612 76.3079274,55.8471934 76.4039888,55.9471603 C76.5032346,56.0423669 76.5515307,56.1571438 76.5515307,56.2904331 L76.5515307,56.2904331 Z M76.2750223,58.0813752 L75.8095754,61.8467967 L74.9237933,61.8467967 L75.3897709,58.0813752 L76.2750223,58.0813752 Z" id="Fill-51" fill="#FFFFFF"></path>
                <path d="M79.7602486,59.6111868 C79.6652486,59.0357157 79.3441592,58.7485091 78.7932654,58.7485091 C78.2710307,58.7485091 77.9308352,59.0357157 77.7737402,59.6111868 L79.7602486,59.6111868 Z M77.7137682,60.2802777 C77.7137682,60.541038 77.8108911,60.7563107 78.0035447,60.9260959 C78.198852,61.0942942 78.4461704,61.1789223 78.7486844,61.1789223 C79.1631816,61.1789223 79.4816173,61.0419306 79.7029302,60.7674182 L80.3642151,61.0942942 C80.1344106,61.373038 79.8992989,61.5676826 79.6551648,61.6771702 C79.4083771,61.7903603 79.1016173,61.8464264 78.7332933,61.8464264 C78.1473715,61.8464264 77.6819246,61.6840463 77.3385447,61.3624595 C76.9951648,61.039286 76.8237402,60.6071537 76.8237402,60.0671207 C76.8237402,59.5016992 77.0148017,59.0283107 77.3974553,58.6474843 C77.7785168,58.2703603 78.2577626,58.081005 78.8394385,58.081005 C79.4014777,58.081005 79.8451648,58.2534347 80.1673156,58.5951207 C80.4968966,58.9415669 80.6619525,59.4043769 80.6619525,59.9846083 C80.6619525,60.0443769 80.657176,60.143286 80.6497458,60.2802777 L77.7137682,60.2802777 Z" id="Fill-53" fill="#FFFFFF"></path>
                <path d="M82.5462961,58.0807405 L82.5064916,58.4282446 C82.8562402,58.1971041 83.2107654,58.0807405 83.5684749,58.0807405 C83.9383911,58.0807405 84.235067,58.1801785 84.4606257,58.3806413 C84.6776927,58.5816331 84.7875531,58.8545587 84.7875531,59.1999471 C84.7875531,59.3887736 84.7711006,59.6114512 84.7397877,59.8716826 L84.4839777,61.8456331 L83.5955419,61.8456331 L83.8693966,59.6458314 C83.8805419,59.5643769 83.8879721,59.4913851 83.8906257,59.4273851 C83.8954022,59.3633851 83.8975251,59.307319 83.8975251,59.2570711 C83.8975251,58.9175008 83.7128324,58.7487736 83.3429162,58.7487736 C83.1157654,58.7487736 82.9204581,58.817005 82.7585866,58.9550545 C82.6232514,59.0629554 82.5266592,59.1951868 82.4608492,59.3522777 C82.426352,59.4321455 82.3976927,59.5289388 82.3738101,59.6437157 C82.3488659,59.7600793 82.3271061,59.8928397 82.3085307,60.0430545 L82.0840335,61.8456331 L81.1977207,61.8456331 L81.6642291,58.0807405 L82.5462961,58.0807405 Z" id="Fill-55" fill="#FFFFFF"></path>
                <polygon id="Fill-57" fill="#FFFFFF" points="86.8037821 58.8926942 86.4386425 61.845686 85.5486145 61.845686 85.9142849 58.8926942 85.4122179 58.8926942 85.5119944 58.0813223 86.0151229 58.0813223 86.2343128 56.3337521 87.1211564 56.3337521 86.9035587 58.0813223 87.7224693 58.0813223 87.622162 58.8926942"></polygon>
                <path d="M90.7572682,59.6111868 C90.6633296,59.0357157 90.3427709,58.7485091 89.7902849,58.7485091 C89.2691117,58.7485091 88.9289162,59.0357157 88.7718212,59.6111868 L90.7572682,59.6111868 Z M88.7118492,60.2802777 C88.7118492,60.541038 88.8079106,60.7563107 89.0005642,60.9260959 C89.1958715,61.0942942 89.4442514,61.1789223 89.7462346,61.1789223 C90.1612626,61.1789223 90.4796983,61.0419306 90.7010112,60.7674182 L91.3628268,61.0942942 C91.1314302,61.373038 90.8968492,61.5676826 90.6521844,61.6771702 C90.4069888,61.7903603 90.0991676,61.8464264 89.7303128,61.8464264 C89.1449218,61.8464264 88.6805363,61.6840463 88.3355642,61.3624595 C87.9932458,61.039286 87.8207598,60.6071537 87.8207598,60.0671207 C87.8207598,59.5016992 88.0134134,59.0283107 88.3955363,58.6474843 C88.7755363,58.2703603 89.2547821,58.081005 89.8380503,58.081005 C90.4000894,58.081005 90.8421844,58.2534347 91.1659274,58.5951207 C91.4939162,58.9415669 91.6589721,59.4043769 91.6589721,59.9846083 C91.6589721,60.0443769 91.655257,60.143286 91.6478268,60.2802777 L88.7118492,60.2802777 Z" id="Fill-59" fill="#FFFFFF"></path>
                <path d="M94.9111034,58.5791471 L94.4100978,59.0647008 C94.1739246,58.8547174 93.9552654,58.7484033 93.7551816,58.7484033 C93.6187849,58.7484033 93.5057402,58.7843702 93.4171089,58.8547174 C93.3268855,58.9277091 93.2833659,59.0160397 93.2833659,59.1218248 C93.2833659,59.2244364 93.3205168,59.3111802 93.3953492,59.3809983 C93.4696508,59.454519 93.6251536,59.5528992 93.8645112,59.6761388 C94.2025838,59.8543868 94.4302654,60.0172959 94.5449022,60.165395 C94.6685615,60.3108496 94.729595,60.500205 94.729595,60.734519 C94.729595,61.0719736 94.6064665,61.3406678 94.3575559,61.545362 C94.1028073,61.7452959 93.7726955,61.8463207 93.3666899,61.8463207 C92.8136732,61.8463207 92.3535335,61.616238 91.9915782,61.1555438 L92.5721927,60.7509157 C92.8104888,61.0360066 93.0647067,61.1793455 93.3343156,61.1793455 C93.4866341,61.1793455 93.6092318,61.1417917 93.7015782,61.0656264 C93.7928631,60.9910479 93.8406285,60.8926678 93.8406285,60.7720727 C93.8406285,60.6662876 93.8002933,60.5811306 93.7228073,60.5150149 C93.6856564,60.4827504 93.6209078,60.4383207 93.5269693,60.3796099 C93.4330307,60.322486 93.3056564,60.2526678 93.1459078,60.1728 C92.8635615,60.0247008 92.6661313,59.8803041 92.5557402,59.7396099 C92.4458799,59.5915107 92.3912151,59.4095603 92.3912151,59.1969322 C92.3912151,58.8753455 92.5185894,58.6087669 92.7685615,58.3971967 C93.0206564,58.1872132 93.3406844,58.0808992 93.7275838,58.0808992 C94.1548184,58.0808992 94.5502095,58.2464529 94.9111034,58.5791471" id="Fill-61" fill="#FFFFFF"></path>
            </g>
        </g>
    </g>
</svg>